<?xml version="1.0" encoding="utf-8" standalone="no"?>
<!DOCTYPE svg PUBLIC "-//W3C//DTD SVG 1.1//EN"
  "http://www.w3.org/Graphics/SVG/1.1/DTD/svg11.dtd">
<svg xmlns:xlink="http://www.w3.org/1999/xlink" width="460.8pt" height="345.6pt" viewBox="0 0 460.8 345.6" xmlns="http://www.w3.org/2000/svg" version="1.1">
 <metadata>
  <rdf:RDF xmlns:dc="http://purl.org/dc/elements/1.1/" xmlns:cc="http://creativecommons.org/ns#" xmlns:rdf="http://www.w3.org/1999/02/22-rdf-syntax-ns#">
   <cc:Work>
    <dc:type rdf:resource="http://purl.org/dc/dcmitype/StillImage"/>
    <dc:date>2025-05-28T08:54:52.738961</dc:date>
    <dc:format>image/svg+xml</dc:format>
    <dc:creator>
     <cc:Agent>
      <dc:title>Matplotlib v3.7.2, https://matplotlib.org/</dc:title>
     </cc:Agent>
    </dc:creator>
   </cc:Work>
  </rdf:RDF>
 </metadata>
 <defs>
  <style type="text/css">*{stroke-linejoin: round; stroke-linecap: butt}</style>
 </defs>
 <g id="figure_1">
  <g id="patch_1">
   <path d="M 0 345.6 
L 460.8 345.6 
L 460.8 0 
L 0 0 
z
" style="fill: #ffffff"/>
  </g>
  <g id="axes_1">
   <g id="patch_2">
    <path d="M 47.81 303.64 
L 450 303.64 
L 450 10.8 
L 47.81 10.8 
z
" style="fill: #ffffff"/>
   </g>
   <g id="patch_3">
    <path d="M 212.342273 303.64 
L 212.342273 10.8 
L 285.467727 10.8 
L 285.467727 303.64 
z
" clip-path="url(#p09fff55072)" style="fill: #808080; opacity: 0.2; stroke: #808080; stroke-linejoin: miter"/>
   </g>
   <g id="matplotlib.axis_1">
    <g id="xtick_1">
     <g id="line2d_1">
      <defs>
       <path id="ma3e19d731e" d="M 0 0 
L 0 3.5 
" style="stroke: #000000; stroke-width: 0.8"/>
      </defs>
      <g>
       <use xlink:href="#ma3e19d731e" x="66.091364" y="303.64" style="stroke: #000000; stroke-width: 0.8"/>
      </g>
     </g>
     <g id="text_1">
      <!-- 0 -->
      <g transform="translate(62.910114 318.238437) scale(0.1 -0.1)">
       <defs>
        <path id="DejaVuSans-30" d="M 2034 4250 
Q 1547 4250 1301 3770 
Q 1056 3291 1056 2328 
Q 1056 1369 1301 889 
Q 1547 409 2034 409 
Q 2525 409 2770 889 
Q 3016 1369 3016 2328 
Q 3016 3291 2770 3770 
Q 2525 4250 2034 4250 
z
M 2034 4750 
Q 2819 4750 3233 4129 
Q 3647 3509 3647 2328 
Q 3647 1150 3233 529 
Q 2819 -91 2034 -91 
Q 1250 -91 836 529 
Q 422 1150 422 2328 
Q 422 3509 836 4129 
Q 1250 4750 2034 4750 
z
" transform="scale(0.015625)"/>
       </defs>
       <use xlink:href="#DejaVuSans-30"/>
      </g>
     </g>
    </g>
    <g id="xtick_2">
     <g id="line2d_2">
      <g>
       <use xlink:href="#ma3e19d731e" x="139.216818" y="303.64" style="stroke: #000000; stroke-width: 0.8"/>
      </g>
     </g>
     <g id="text_2">
      <!-- 10 -->
      <g transform="translate(132.854318 318.238437) scale(0.1 -0.1)">
       <defs>
        <path id="DejaVuSans-31" d="M 794 531 
L 1825 531 
L 1825 4091 
L 703 3866 
L 703 4441 
L 1819 4666 
L 2450 4666 
L 2450 531 
L 3481 531 
L 3481 0 
L 794 0 
L 794 531 
z
" transform="scale(0.015625)"/>
       </defs>
       <use xlink:href="#DejaVuSans-31"/>
       <use xlink:href="#DejaVuSans-30" x="63.623047"/>
      </g>
     </g>
    </g>
    <g id="xtick_3">
     <g id="line2d_3">
      <g>
       <use xlink:href="#ma3e19d731e" x="212.342273" y="303.64" style="stroke: #000000; stroke-width: 0.8"/>
      </g>
     </g>
     <g id="text_3">
      <!-- 20 -->
      <g transform="translate(205.979773 318.238437) scale(0.1 -0.1)">
       <defs>
        <path id="DejaVuSans-32" d="M 1228 531 
L 3431 531 
L 3431 0 
L 469 0 
L 469 531 
Q 828 903 1448 1529 
Q 2069 2156 2228 2338 
Q 2531 2678 2651 2914 
Q 2772 3150 2772 3378 
Q 2772 3750 2511 3984 
Q 2250 4219 1831 4219 
Q 1534 4219 1204 4116 
Q 875 4013 500 3803 
L 500 4441 
Q 881 4594 1212 4672 
Q 1544 4750 1819 4750 
Q 2544 4750 2975 4387 
Q 3406 4025 3406 3419 
Q 3406 3131 3298 2873 
Q 3191 2616 2906 2266 
Q 2828 2175 2409 1742 
Q 1991 1309 1228 531 
z
" transform="scale(0.015625)"/>
       </defs>
       <use xlink:href="#DejaVuSans-32"/>
       <use xlink:href="#DejaVuSans-30" x="63.623047"/>
      </g>
     </g>
    </g>
    <g id="xtick_4">
     <g id="line2d_4">
      <g>
       <use xlink:href="#ma3e19d731e" x="285.467727" y="303.64" style="stroke: #000000; stroke-width: 0.8"/>
      </g>
     </g>
     <g id="text_4">
      <!-- 30 -->
      <g transform="translate(279.105227 318.238437) scale(0.1 -0.1)">
       <defs>
        <path id="DejaVuSans-33" d="M 2597 2516 
Q 3050 2419 3304 2112 
Q 3559 1806 3559 1356 
Q 3559 666 3084 287 
Q 2609 -91 1734 -91 
Q 1441 -91 1130 -33 
Q 819 25 488 141 
L 488 750 
Q 750 597 1062 519 
Q 1375 441 1716 441 
Q 2309 441 2620 675 
Q 2931 909 2931 1356 
Q 2931 1769 2642 2001 
Q 2353 2234 1838 2234 
L 1294 2234 
L 1294 2753 
L 1863 2753 
Q 2328 2753 2575 2939 
Q 2822 3125 2822 3475 
Q 2822 3834 2567 4026 
Q 2313 4219 1838 4219 
Q 1578 4219 1281 4162 
Q 984 4106 628 3988 
L 628 4550 
Q 988 4650 1302 4700 
Q 1616 4750 1894 4750 
Q 2613 4750 3031 4423 
Q 3450 4097 3450 3541 
Q 3450 3153 3228 2886 
Q 3006 2619 2597 2516 
z
" transform="scale(0.015625)"/>
       </defs>
       <use xlink:href="#DejaVuSans-33"/>
       <use xlink:href="#DejaVuSans-30" x="63.623047"/>
      </g>
     </g>
    </g>
    <g id="xtick_5">
     <g id="line2d_5">
      <g>
       <use xlink:href="#ma3e19d731e" x="358.593182" y="303.64" style="stroke: #000000; stroke-width: 0.8"/>
      </g>
     </g>
     <g id="text_5">
      <!-- 40 -->
      <g transform="translate(352.230682 318.238437) scale(0.1 -0.1)">
       <defs>
        <path id="DejaVuSans-34" d="M 2419 4116 
L 825 1625 
L 2419 1625 
L 2419 4116 
z
M 2253 4666 
L 3047 4666 
L 3047 1625 
L 3713 1625 
L 3713 1100 
L 3047 1100 
L 3047 0 
L 2419 0 
L 2419 1100 
L 313 1100 
L 313 1709 
L 2253 4666 
z
" transform="scale(0.015625)"/>
       </defs>
       <use xlink:href="#DejaVuSans-34"/>
       <use xlink:href="#DejaVuSans-30" x="63.623047"/>
      </g>
     </g>
    </g>
    <g id="xtick_6">
     <g id="line2d_6">
      <g>
       <use xlink:href="#ma3e19d731e" x="431.718636" y="303.64" style="stroke: #000000; stroke-width: 0.8"/>
      </g>
     </g>
     <g id="text_6">
      <!-- 50 -->
      <g transform="translate(425.356136 318.238437) scale(0.1 -0.1)">
       <defs>
        <path id="DejaVuSans-35" d="M 691 4666 
L 3169 4666 
L 3169 4134 
L 1269 4134 
L 1269 2991 
Q 1406 3038 1543 3061 
Q 1681 3084 1819 3084 
Q 2600 3084 3056 2656 
Q 3513 2228 3513 1497 
Q 3513 744 3044 326 
Q 2575 -91 1722 -91 
Q 1428 -91 1123 -41 
Q 819 9 494 109 
L 494 744 
Q 775 591 1075 516 
Q 1375 441 1709 441 
Q 2250 441 2565 725 
Q 2881 1009 2881 1497 
Q 2881 1984 2565 2268 
Q 2250 2553 1709 2553 
Q 1456 2553 1204 2497 
Q 953 2441 691 2322 
L 691 4666 
z
" transform="scale(0.015625)"/>
       </defs>
       <use xlink:href="#DejaVuSans-35"/>
       <use xlink:href="#DejaVuSans-30" x="63.623047"/>
      </g>
     </g>
    </g>
    <g id="text_7">
     <!-- Time [s] -->
     <g transform="translate(228.576094 331.916562) scale(0.1 -0.1)">
      <defs>
       <path id="DejaVuSans-54" d="M -19 4666 
L 3928 4666 
L 3928 4134 
L 2272 4134 
L 2272 0 
L 1638 0 
L 1638 4134 
L -19 4134 
L -19 4666 
z
" transform="scale(0.015625)"/>
       <path id="DejaVuSans-69" d="M 603 3500 
L 1178 3500 
L 1178 0 
L 603 0 
L 603 3500 
z
M 603 4863 
L 1178 4863 
L 1178 4134 
L 603 4134 
L 603 4863 
z
" transform="scale(0.015625)"/>
       <path id="DejaVuSans-6d" d="M 3328 2828 
Q 3544 3216 3844 3400 
Q 4144 3584 4550 3584 
Q 5097 3584 5394 3201 
Q 5691 2819 5691 2113 
L 5691 0 
L 5113 0 
L 5113 2094 
Q 5113 2597 4934 2840 
Q 4756 3084 4391 3084 
Q 3944 3084 3684 2787 
Q 3425 2491 3425 1978 
L 3425 0 
L 2847 0 
L 2847 2094 
Q 2847 2600 2669 2842 
Q 2491 3084 2119 3084 
Q 1678 3084 1418 2786 
Q 1159 2488 1159 1978 
L 1159 0 
L 581 0 
L 581 3500 
L 1159 3500 
L 1159 2956 
Q 1356 3278 1631 3431 
Q 1906 3584 2284 3584 
Q 2666 3584 2933 3390 
Q 3200 3197 3328 2828 
z
" transform="scale(0.015625)"/>
       <path id="DejaVuSans-65" d="M 3597 1894 
L 3597 1613 
L 953 1613 
Q 991 1019 1311 708 
Q 1631 397 2203 397 
Q 2534 397 2845 478 
Q 3156 559 3463 722 
L 3463 178 
Q 3153 47 2828 -22 
Q 2503 -91 2169 -91 
Q 1331 -91 842 396 
Q 353 884 353 1716 
Q 353 2575 817 3079 
Q 1281 3584 2069 3584 
Q 2775 3584 3186 3129 
Q 3597 2675 3597 1894 
z
M 3022 2063 
Q 3016 2534 2758 2815 
Q 2500 3097 2075 3097 
Q 1594 3097 1305 2825 
Q 1016 2553 972 2059 
L 3022 2063 
z
" transform="scale(0.015625)"/>
       <path id="DejaVuSans-20" transform="scale(0.015625)"/>
       <path id="DejaVuSans-5b" d="M 550 4863 
L 1875 4863 
L 1875 4416 
L 1125 4416 
L 1125 -397 
L 1875 -397 
L 1875 -844 
L 550 -844 
L 550 4863 
z
" transform="scale(0.015625)"/>
       <path id="DejaVuSans-73" d="M 2834 3397 
L 2834 2853 
Q 2591 2978 2328 3040 
Q 2066 3103 1784 3103 
Q 1356 3103 1142 2972 
Q 928 2841 928 2578 
Q 928 2378 1081 2264 
Q 1234 2150 1697 2047 
L 1894 2003 
Q 2506 1872 2764 1633 
Q 3022 1394 3022 966 
Q 3022 478 2636 193 
Q 2250 -91 1575 -91 
Q 1294 -91 989 -36 
Q 684 19 347 128 
L 347 722 
Q 666 556 975 473 
Q 1284 391 1588 391 
Q 1994 391 2212 530 
Q 2431 669 2431 922 
Q 2431 1156 2273 1281 
Q 2116 1406 1581 1522 
L 1381 1569 
Q 847 1681 609 1914 
Q 372 2147 372 2553 
Q 372 3047 722 3315 
Q 1072 3584 1716 3584 
Q 2034 3584 2315 3537 
Q 2597 3491 2834 3397 
z
" transform="scale(0.015625)"/>
       <path id="DejaVuSans-5d" d="M 1947 4863 
L 1947 -844 
L 622 -844 
L 622 -397 
L 1369 -397 
L 1369 4416 
L 622 4416 
L 622 4863 
L 1947 4863 
z
" transform="scale(0.015625)"/>
      </defs>
      <use xlink:href="#DejaVuSans-54"/>
      <use xlink:href="#DejaVuSans-69" x="57.958984"/>
      <use xlink:href="#DejaVuSans-6d" x="85.742188"/>
      <use xlink:href="#DejaVuSans-65" x="183.154297"/>
      <use xlink:href="#DejaVuSans-20" x="244.677734"/>
      <use xlink:href="#DejaVuSans-5b" x="276.464844"/>
      <use xlink:href="#DejaVuSans-73" x="315.478516"/>
      <use xlink:href="#DejaVuSans-5d" x="367.578125"/>
     </g>
    </g>
   </g>
   <g id="matplotlib.axis_2">
    <g id="ytick_1">
     <g id="line2d_7">
      <defs>
       <path id="me6d1d5d699" d="M 0 0 
L -3.5 0 
" style="stroke: #000000; stroke-width: 0.8"/>
      </defs>
      <g>
       <use xlink:href="#me6d1d5d699" x="47.81" y="288.472094" style="stroke: #000000; stroke-width: 0.8"/>
      </g>
     </g>
     <g id="text_8">
      <!-- 0.5 -->
      <g transform="translate(24.906875 292.271313) scale(0.1 -0.1)">
       <defs>
        <path id="DejaVuSans-2e" d="M 684 794 
L 1344 794 
L 1344 0 
L 684 0 
L 684 794 
z
" transform="scale(0.015625)"/>
       </defs>
       <use xlink:href="#DejaVuSans-30"/>
       <use xlink:href="#DejaVuSans-2e" x="63.623047"/>
       <use xlink:href="#DejaVuSans-35" x="95.410156"/>
      </g>
     </g>
    </g>
    <g id="ytick_2">
     <g id="line2d_8">
      <g>
       <use xlink:href="#me6d1d5d699" x="47.81" y="245.671767" style="stroke: #000000; stroke-width: 0.8"/>
      </g>
     </g>
     <g id="text_9">
      <!-- 1.0 -->
      <g transform="translate(24.906875 249.470986) scale(0.1 -0.1)">
       <use xlink:href="#DejaVuSans-31"/>
       <use xlink:href="#DejaVuSans-2e" x="63.623047"/>
       <use xlink:href="#DejaVuSans-30" x="95.410156"/>
      </g>
     </g>
    </g>
    <g id="ytick_3">
     <g id="line2d_9">
      <g>
       <use xlink:href="#me6d1d5d699" x="47.81" y="202.87144" style="stroke: #000000; stroke-width: 0.8"/>
      </g>
     </g>
     <g id="text_10">
      <!-- 1.5 -->
      <g transform="translate(24.906875 206.670659) scale(0.1 -0.1)">
       <use xlink:href="#DejaVuSans-31"/>
       <use xlink:href="#DejaVuSans-2e" x="63.623047"/>
       <use xlink:href="#DejaVuSans-35" x="95.410156"/>
      </g>
     </g>
    </g>
    <g id="ytick_4">
     <g id="line2d_10">
      <g>
       <use xlink:href="#me6d1d5d699" x="47.81" y="160.071114" style="stroke: #000000; stroke-width: 0.8"/>
      </g>
     </g>
     <g id="text_11">
      <!-- 2.0 -->
      <g transform="translate(24.906875 163.870333) scale(0.1 -0.1)">
       <use xlink:href="#DejaVuSans-32"/>
       <use xlink:href="#DejaVuSans-2e" x="63.623047"/>
       <use xlink:href="#DejaVuSans-30" x="95.410156"/>
      </g>
     </g>
    </g>
    <g id="ytick_5">
     <g id="line2d_11">
      <g>
       <use xlink:href="#me6d1d5d699" x="47.81" y="117.270787" style="stroke: #000000; stroke-width: 0.8"/>
      </g>
     </g>
     <g id="text_12">
      <!-- 2.5 -->
      <g transform="translate(24.906875 121.070006) scale(0.1 -0.1)">
       <use xlink:href="#DejaVuSans-32"/>
       <use xlink:href="#DejaVuSans-2e" x="63.623047"/>
       <use xlink:href="#DejaVuSans-35" x="95.410156"/>
      </g>
     </g>
    </g>
    <g id="ytick_6">
     <g id="line2d_12">
      <g>
       <use xlink:href="#me6d1d5d699" x="47.81" y="74.47046" style="stroke: #000000; stroke-width: 0.8"/>
      </g>
     </g>
     <g id="text_13">
      <!-- 3.0 -->
      <g transform="translate(24.906875 78.269679) scale(0.1 -0.1)">
       <use xlink:href="#DejaVuSans-33"/>
       <use xlink:href="#DejaVuSans-2e" x="63.623047"/>
       <use xlink:href="#DejaVuSans-30" x="95.410156"/>
      </g>
     </g>
    </g>
    <g id="ytick_7">
     <g id="line2d_13">
      <g>
       <use xlink:href="#me6d1d5d699" x="47.81" y="31.670134" style="stroke: #000000; stroke-width: 0.8"/>
      </g>
     </g>
     <g id="text_14">
      <!-- 3.5 -->
      <g transform="translate(24.906875 35.469353) scale(0.1 -0.1)">
       <use xlink:href="#DejaVuSans-33"/>
       <use xlink:href="#DejaVuSans-2e" x="63.623047"/>
       <use xlink:href="#DejaVuSans-35" x="95.410156"/>
      </g>
     </g>
    </g>
    <g id="text_15">
     <!-- RMS Pose Error [px] -->
     <g transform="translate(18.827188 206.744219) rotate(-90) scale(0.1 -0.1)">
      <defs>
       <path id="DejaVuSans-52" d="M 2841 2188 
Q 3044 2119 3236 1894 
Q 3428 1669 3622 1275 
L 4263 0 
L 3584 0 
L 2988 1197 
Q 2756 1666 2539 1819 
Q 2322 1972 1947 1972 
L 1259 1972 
L 1259 0 
L 628 0 
L 628 4666 
L 2053 4666 
Q 2853 4666 3247 4331 
Q 3641 3997 3641 3322 
Q 3641 2881 3436 2590 
Q 3231 2300 2841 2188 
z
M 1259 4147 
L 1259 2491 
L 2053 2491 
Q 2509 2491 2742 2702 
Q 2975 2913 2975 3322 
Q 2975 3731 2742 3939 
Q 2509 4147 2053 4147 
L 1259 4147 
z
" transform="scale(0.015625)"/>
       <path id="DejaVuSans-4d" d="M 628 4666 
L 1569 4666 
L 2759 1491 
L 3956 4666 
L 4897 4666 
L 4897 0 
L 4281 0 
L 4281 4097 
L 3078 897 
L 2444 897 
L 1241 4097 
L 1241 0 
L 628 0 
L 628 4666 
z
" transform="scale(0.015625)"/>
       <path id="DejaVuSans-53" d="M 3425 4513 
L 3425 3897 
Q 3066 4069 2747 4153 
Q 2428 4238 2131 4238 
Q 1616 4238 1336 4038 
Q 1056 3838 1056 3469 
Q 1056 3159 1242 3001 
Q 1428 2844 1947 2747 
L 2328 2669 
Q 3034 2534 3370 2195 
Q 3706 1856 3706 1288 
Q 3706 609 3251 259 
Q 2797 -91 1919 -91 
Q 1588 -91 1214 -16 
Q 841 59 441 206 
L 441 856 
Q 825 641 1194 531 
Q 1563 422 1919 422 
Q 2459 422 2753 634 
Q 3047 847 3047 1241 
Q 3047 1584 2836 1778 
Q 2625 1972 2144 2069 
L 1759 2144 
Q 1053 2284 737 2584 
Q 422 2884 422 3419 
Q 422 4038 858 4394 
Q 1294 4750 2059 4750 
Q 2388 4750 2728 4690 
Q 3069 4631 3425 4513 
z
" transform="scale(0.015625)"/>
       <path id="DejaVuSans-50" d="M 1259 4147 
L 1259 2394 
L 2053 2394 
Q 2494 2394 2734 2622 
Q 2975 2850 2975 3272 
Q 2975 3691 2734 3919 
Q 2494 4147 2053 4147 
L 1259 4147 
z
M 628 4666 
L 2053 4666 
Q 2838 4666 3239 4311 
Q 3641 3956 3641 3272 
Q 3641 2581 3239 2228 
Q 2838 1875 2053 1875 
L 1259 1875 
L 1259 0 
L 628 0 
L 628 4666 
z
" transform="scale(0.015625)"/>
       <path id="DejaVuSans-6f" d="M 1959 3097 
Q 1497 3097 1228 2736 
Q 959 2375 959 1747 
Q 959 1119 1226 758 
Q 1494 397 1959 397 
Q 2419 397 2687 759 
Q 2956 1122 2956 1747 
Q 2956 2369 2687 2733 
Q 2419 3097 1959 3097 
z
M 1959 3584 
Q 2709 3584 3137 3096 
Q 3566 2609 3566 1747 
Q 3566 888 3137 398 
Q 2709 -91 1959 -91 
Q 1206 -91 779 398 
Q 353 888 353 1747 
Q 353 2609 779 3096 
Q 1206 3584 1959 3584 
z
" transform="scale(0.015625)"/>
       <path id="DejaVuSans-45" d="M 628 4666 
L 3578 4666 
L 3578 4134 
L 1259 4134 
L 1259 2753 
L 3481 2753 
L 3481 2222 
L 1259 2222 
L 1259 531 
L 3634 531 
L 3634 0 
L 628 0 
L 628 4666 
z
" transform="scale(0.015625)"/>
       <path id="DejaVuSans-72" d="M 2631 2963 
Q 2534 3019 2420 3045 
Q 2306 3072 2169 3072 
Q 1681 3072 1420 2755 
Q 1159 2438 1159 1844 
L 1159 0 
L 581 0 
L 581 3500 
L 1159 3500 
L 1159 2956 
Q 1341 3275 1631 3429 
Q 1922 3584 2338 3584 
Q 2397 3584 2469 3576 
Q 2541 3569 2628 3553 
L 2631 2963 
z
" transform="scale(0.015625)"/>
       <path id="DejaVuSans-70" d="M 1159 525 
L 1159 -1331 
L 581 -1331 
L 581 3500 
L 1159 3500 
L 1159 2969 
Q 1341 3281 1617 3432 
Q 1894 3584 2278 3584 
Q 2916 3584 3314 3078 
Q 3713 2572 3713 1747 
Q 3713 922 3314 415 
Q 2916 -91 2278 -91 
Q 1894 -91 1617 61 
Q 1341 213 1159 525 
z
M 3116 1747 
Q 3116 2381 2855 2742 
Q 2594 3103 2138 3103 
Q 1681 3103 1420 2742 
Q 1159 2381 1159 1747 
Q 1159 1113 1420 752 
Q 1681 391 2138 391 
Q 2594 391 2855 752 
Q 3116 1113 3116 1747 
z
" transform="scale(0.015625)"/>
       <path id="DejaVuSans-78" d="M 3513 3500 
L 2247 1797 
L 3578 0 
L 2900 0 
L 1881 1375 
L 863 0 
L 184 0 
L 1544 1831 
L 300 3500 
L 978 3500 
L 1906 2253 
L 2834 3500 
L 3513 3500 
z
" transform="scale(0.015625)"/>
      </defs>
      <use xlink:href="#DejaVuSans-52"/>
      <use xlink:href="#DejaVuSans-4d" x="69.482422"/>
      <use xlink:href="#DejaVuSans-53" x="155.761719"/>
      <use xlink:href="#DejaVuSans-20" x="219.238281"/>
      <use xlink:href="#DejaVuSans-50" x="251.025391"/>
      <use xlink:href="#DejaVuSans-6f" x="307.703125"/>
      <use xlink:href="#DejaVuSans-73" x="368.884766"/>
      <use xlink:href="#DejaVuSans-65" x="420.984375"/>
      <use xlink:href="#DejaVuSans-20" x="482.507812"/>
      <use xlink:href="#DejaVuSans-45" x="514.294922"/>
      <use xlink:href="#DejaVuSans-72" x="577.478516"/>
      <use xlink:href="#DejaVuSans-72" x="616.841797"/>
      <use xlink:href="#DejaVuSans-6f" x="655.705078"/>
      <use xlink:href="#DejaVuSans-72" x="716.886719"/>
      <use xlink:href="#DejaVuSans-20" x="758"/>
      <use xlink:href="#DejaVuSans-5b" x="789.787109"/>
      <use xlink:href="#DejaVuSans-70" x="828.800781"/>
      <use xlink:href="#DejaVuSans-78" x="892.277344"/>
      <use xlink:href="#DejaVuSans-5d" x="951.457031"/>
     </g>
    </g>
   </g>
   <g id="line2d_14">
    <path d="M 66.091364 265.490738 
L 66.822618 278.026574 
L 67.553873 274.594979 
L 68.285127 255.54308 
L 69.016382 272.774541 
L 69.747636 259.998918 
L 70.478891 264.508752 
L 71.210145 255.691791 
L 71.9414 280.098915 
L 72.672655 274.873756 
L 73.403909 266.790921 
L 74.135164 268.690374 
L 74.866418 263.91908 
L 75.597673 276.618976 
L 76.328927 255.296053 
L 77.060182 255.183928 
L 77.791436 271.616068 
L 78.522691 256.420697 
L 79.253945 270.087962 
L 79.9852 263.077813 
L 80.716455 251.680102 
L 81.447709 268.939023 
L 82.178964 273.580921 
L 82.910218 267.853169 
L 83.641473 253.701103 
L 84.372727 278.207618 
L 85.103982 262.997946 
L 85.835236 269.508114 
L 86.566491 249.767276 
L 87.297745 270.021669 
L 88.029 272.784772 
L 88.760255 255.9129 
L 89.491509 258.744163 
L 90.222764 249.271876 
L 90.954018 275.49152 
L 91.685273 262.271258 
L 92.416527 245.44474 
L 93.147782 266.958836 
L 93.879036 248.872181 
L 94.610291 256.101874 
L 95.341545 278.550883 
L 96.0728 272.822779 
L 96.804055 256.517537 
L 97.535309 260.453306 
L 98.997818 263.939618 
L 99.729073 276.144481 
L 100.460327 245.135678 
L 101.922836 271.392677 
L 102.654091 264.874843 
L 103.385345 280.754848 
L 104.1166 272.896985 
L 104.847855 257.653279 
L 105.579109 249.37462 
L 106.310364 260.096141 
L 107.041618 257.364978 
L 107.772873 262.164089 
L 108.504127 248.100901 
L 109.235382 244.67889 
L 109.966636 244.300809 
L 110.697891 264.374337 
L 111.429145 260.410707 
L 112.1604 244.385995 
L 112.891655 262.513418 
L 113.622909 274.102561 
L 114.354164 265.008268 
L 115.085418 249.789084 
L 115.816673 274.098553 
L 116.547927 264.122404 
L 117.279182 270.522142 
L 118.010436 275.775287 
L 118.741691 253.183665 
L 120.2042 263.801775 
L 120.935455 261.931749 
L 121.666709 267.027134 
L 122.397964 276.89731 
L 123.129218 270.7861 
L 123.860473 261.098083 
L 124.591727 263.94701 
L 125.322982 259.665214 
L 126.054236 259.363467 
L 126.785491 259.842708 
L 127.516745 252.498713 
L 128.248 260.658678 
L 128.979255 257.57357 
L 129.710509 269.3796 
L 130.441764 270.00245 
L 131.173018 269.640747 
L 131.904273 273.923485 
L 132.635527 251.497675 
L 133.366782 273.167364 
L 134.098036 263.769487 
L 134.829291 251.938344 
L 135.560545 256.764911 
L 136.2918 257.179048 
L 137.023055 252.563602 
L 137.754309 256.333366 
L 138.485564 267.910149 
L 139.216818 268.050062 
L 139.948073 266.62074 
L 140.679327 266.400328 
L 141.410582 251.101726 
L 142.141836 261.086495 
L 142.873091 246.202964 
L 144.3356 273.649308 
L 145.066855 261.368314 
L 145.798109 252.710148 
L 146.529364 265.195881 
L 147.260618 280.195052 
L 147.991873 259.25849 
L 148.723127 269.825292 
L 149.454382 268.73522 
L 150.185636 264.125629 
L 150.916891 263.355563 
L 151.648145 273.112688 
L 152.3794 261.294066 
L 153.110655 251.685567 
L 153.841909 271.82905 
L 154.573164 260.929708 
L 155.304418 257.832228 
L 156.035673 259.95647 
L 156.766927 266.169265 
L 157.498182 267.566839 
L 158.229436 260.306143 
L 158.960691 266.913426 
L 159.691945 264.680613 
L 160.4232 265.437427 
L 161.154455 261.683346 
L 161.885709 289.587007 
L 162.616964 253.911004 
L 163.348218 259.095687 
L 164.079473 285.993515 
L 164.810727 280.991181 
L 165.541982 242.653646 
L 166.273236 259.055167 
L 167.004491 271.413347 
L 167.735745 248.650762 
L 168.467 262.498958 
L 169.198255 262.68781 
L 169.929509 273.329031 
L 170.660764 267.589916 
L 171.392018 262.914941 
L 172.123273 254.579143 
L 172.854527 267.868214 
L 173.585782 264.531464 
L 174.317036 286.576111 
L 175.048291 268.530185 
L 175.779545 245.470725 
L 176.5108 246.567392 
L 177.242055 250.178078 
L 177.973309 260.373225 
L 178.704564 256.171372 
L 179.435818 249.725895 
L 180.167073 248.222237 
L 180.898327 245.879829 
L 181.629582 277.103456 
L 182.360836 260.321591 
L 183.092091 262.265825 
L 183.823345 261.767081 
L 184.5546 252.186431 
L 185.285855 252.161977 
L 186.017109 257.243608 
L 186.748364 270.051661 
L 187.479618 268.165464 
L 188.210873 258.578284 
L 188.942127 258.102106 
L 189.673382 262.111906 
L 190.404636 268.181031 
L 191.135891 259.801308 
L 191.867145 271.311005 
L 192.5984 269.344515 
L 193.329655 245.83566 
L 194.060909 254.041144 
L 194.792164 270.746454 
L 195.523418 275.663159 
L 196.254673 235.01304 
L 196.985927 261.558853 
L 197.717182 257.209625 
L 198.448436 256.175909 
L 199.179691 254.212196 
L 199.910945 253.218797 
L 200.6422 268.250386 
L 201.373455 275.78258 
L 202.104709 274.866423 
L 202.835964 253.507235 
L 203.567218 252.356566 
L 204.298473 255.106984 
L 205.029727 272.382886 
L 205.760982 275.859117 
L 206.492236 276.07458 
L 207.223491 261.403172 
L 207.954745 250.808257 
L 208.686 253.752364 
L 209.417255 255.201453 
L 210.148509 283.437007 
L 210.879764 261.11367 
L 211.611018 262.989964 
L 212.342273 261.318771 
L 213.073527 273.6657 
L 213.804782 266.796425 
L 214.536036 258.491367 
L 215.267291 270.226926 
L 215.998545 264.061802 
L 216.7298 255.866682 
L 217.461055 271.283061 
L 218.192309 276.79405 
L 218.923564 272.615988 
L 219.654818 272.754297 
L 220.386073 257.93689 
L 221.117327 278.823225 
L 221.848582 263.506562 
L 222.579836 273.879108 
L 223.311091 255.907955 
L 224.042345 261.933848 
L 224.7736 245.80632 
L 225.504855 270.75291 
L 226.967364 258.521496 
L 227.698618 259.46244 
L 228.429873 270.64939 
L 229.161127 274.250759 
L 229.892382 257.605601 
L 230.623636 265.672738 
L 231.354891 252.304788 
L 232.086145 272.166926 
L 232.8174 259.455396 
L 233.548655 269.402607 
L 234.279909 249.80802 
L 235.011164 256.658701 
L 235.742418 272.25655 
L 236.473673 253.906266 
L 237.204927 267.888059 
L 237.936182 262.313183 
L 238.667436 258.577623 
L 239.398691 266.029529 
L 240.129945 265.177182 
L 241.592455 243.129331 
L 242.323709 272.539144 
L 243.054964 255.556452 
L 243.786218 255.991059 
L 244.517473 267.550986 
L 245.248727 264.653592 
L 245.979982 245.846916 
L 246.711236 274.377613 
L 247.442491 256.14774 
L 248.173745 269.354776 
L 248.905 255.331211 
L 249.636255 269.843618 
L 250.367509 263.69862 
L 251.098764 273.227521 
L 251.830018 272.347444 
L 252.561273 264.822881 
L 253.292527 260.606676 
L 254.023782 265.789275 
L 254.755036 259.668538 
L 255.486291 260.60778 
L 256.217545 264.33839 
L 256.9488 249.608506 
L 257.680055 274.984994 
L 258.411309 265.687724 
L 259.142564 278.688829 
L 259.873818 256.368723 
L 260.605073 263.699146 
L 261.336327 267.113204 
L 262.067582 274.410853 
L 262.798836 257.482264 
L 263.530091 269.306224 
L 264.261345 254.363245 
L 264.9926 263.249603 
L 265.723855 263.789939 
L 266.455109 273.83922 
L 267.186364 250.214478 
L 267.917618 269.610037 
L 268.648873 261.92684 
L 269.380127 265.038868 
L 270.111382 253.550296 
L 270.842636 256.301339 
L 271.573891 274.531932 
L 272.305145 249.0157 
L 273.0364 255.734819 
L 273.767655 267.500482 
L 274.498909 259.567645 
L 275.230164 262.918625 
L 275.961418 254.055947 
L 276.692673 254.947817 
L 277.423927 259.214107 
L 278.155182 274.243987 
L 278.886436 262.128657 
L 279.617691 258.850766 
L 280.348945 256.614159 
L 281.0802 263.977019 
L 281.811455 269.021128 
L 282.542709 257.406376 
L 283.273964 263.792962 
L 284.005218 238.112542 
L 284.736473 265.318212 
L 285.467727 260.184675 
L 286.930236 277.341203 
L 287.661491 263.849001 
L 288.392745 266.3342 
L 289.124 266.724862 
L 289.855255 282.101139 
L 290.586509 260.72803 
L 291.317764 258.88263 
L 292.049018 262.018903 
L 292.780273 280.566264 
L 293.511527 276.593454 
L 294.242782 268.554001 
L 294.974036 256.297894 
L 295.705291 264.563835 
L 296.436545 265.614431 
L 297.1678 259.392686 
L 298.630309 262.706059 
L 299.361564 266.908898 
L 300.092818 261.05301 
L 300.824073 253.814158 
L 301.555327 250.808498 
L 302.286582 258.97362 
L 303.017836 263.880187 
L 303.749091 277.710478 
L 304.480345 264.387473 
L 305.2116 259.377407 
L 305.942855 248.624971 
L 306.674109 253.886708 
L 307.405364 258.208513 
L 308.136618 264.277049 
L 308.867873 257.002589 
L 309.599127 265.677615 
L 310.330382 264.173143 
L 311.061636 266.206928 
L 311.792891 277.974744 
L 312.524145 269.453868 
L 313.2554 253.633694 
L 313.986655 267.156197 
L 314.717909 268.857888 
L 315.449164 248.636571 
L 316.180418 264.543587 
L 316.911673 254.624355 
L 318.374182 263.797462 
L 319.105436 267.340262 
L 319.836691 271.502585 
L 320.567945 253.143315 
L 321.2992 263.804268 
L 322.030455 262.284832 
L 322.761709 269.105779 
L 323.492964 257.177569 
L 324.224218 276.020439 
L 324.955473 244.724552 
L 325.686727 258.705746 
L 326.417982 254.48561 
L 327.149236 249.161051 
L 327.880491 261.323485 
L 328.611745 262.689734 
L 329.343 257.74096 
L 330.074255 263.147736 
L 330.805509 257.526413 
L 331.536764 261.718074 
L 332.268018 270.707008 
L 332.999273 257.692049 
L 333.730527 261.503935 
L 335.193036 266.620825 
L 335.924291 261.386406 
L 336.655545 254.105628 
L 338.118055 268.708214 
L 338.849309 243.501553 
L 339.580564 249.999164 
L 340.311818 252.716774 
L 341.043073 263.28079 
L 341.774327 267.019788 
L 342.505582 264.820894 
L 343.236836 257.940715 
L 343.968091 261.069748 
L 344.699345 273.433786 
L 345.4306 252.201446 
L 346.161855 253.769122 
L 346.893109 276.255414 
L 347.624364 256.379747 
L 348.355618 244.159309 
L 349.086873 266.366502 
L 349.818127 252.585314 
L 350.549382 255.41325 
L 351.280636 245.7182 
L 352.011891 264.582077 
L 352.743145 275.014938 
L 353.4744 258.402062 
L 354.205655 251.197083 
L 354.936909 259.265593 
L 355.668164 258.482247 
L 356.399418 265.908162 
L 357.130673 262.41215 
L 357.861927 260.688799 
L 358.593182 268.624628 
L 359.324436 260.484955 
L 360.055691 267.279822 
L 360.786945 262.655068 
L 361.5182 263.533015 
L 362.249455 261.701368 
L 362.980709 264.040188 
L 363.711964 260.636258 
L 364.443218 274.711511 
L 365.174473 256.727757 
L 365.905727 261.880218 
L 366.636982 265.612376 
L 367.368236 267.606923 
L 368.099491 268.271929 
L 368.830745 255.556514 
L 369.562 257.232402 
L 370.293255 243.124657 
L 371.024509 268.223951 
L 371.755764 266.383087 
L 372.487018 273.67308 
L 373.218273 257.617517 
L 373.949527 259.345526 
L 374.680782 272.317113 
L 375.412036 248.495765 
L 376.143291 249.681325 
L 376.874545 257.804851 
L 377.6058 259.879061 
L 378.337055 240.683541 
L 379.068309 259.434041 
L 379.799564 251.033093 
L 380.530818 273.803669 
L 381.262073 269.808822 
L 381.993327 275.025994 
L 382.724582 261.482022 
L 383.455836 267.89285 
L 384.187091 270.005377 
L 384.918345 265.569215 
L 385.6496 268.896853 
L 386.380855 246.512322 
L 387.112109 275.514335 
L 387.843364 265.143831 
L 388.574618 250.73408 
L 389.305873 266.499641 
L 390.037127 256.611465 
L 390.768382 252.340531 
L 391.499636 273.429051 
L 392.230891 260.266314 
L 392.962145 284.191145 
L 393.6934 258.486332 
L 394.424655 270.774803 
L 395.155909 290.329091 
L 395.887164 281.26471 
L 396.618418 250.077757 
L 397.349673 259.6906 
L 398.080927 247.141009 
L 398.812182 251.904777 
L 399.543436 273.894305 
L 400.274691 254.391691 
L 401.005945 251.281358 
L 401.7372 268.993104 
L 402.468455 259.214754 
L 403.199709 256.950233 
L 403.930964 264.211691 
L 404.662218 262.463701 
L 405.393473 261.388379 
L 406.124727 242.099464 
L 406.855982 269.444753 
L 407.587236 254.824256 
L 408.318491 279.781362 
L 409.049745 257.747372 
L 409.781 262.035143 
L 410.512255 257.003362 
L 411.243509 265.429436 
L 412.706018 247.520413 
L 413.437273 272.554828 
L 414.168527 270.342001 
L 414.899782 267.106045 
L 415.631036 270.224712 
L 416.362291 265.190556 
L 417.093545 279.561605 
L 417.8248 262.892304 
L 418.556055 257.254618 
L 419.287309 259.571072 
L 420.018564 266.09474 
L 420.749818 257.04937 
L 421.481073 270.238114 
L 422.212327 254.644029 
L 422.943582 255.684138 
L 423.674836 250.594892 
L 424.406091 237.736922 
L 425.137345 263.186882 
L 425.8686 261.540926 
L 426.599855 265.640076 
L 427.331109 267.972444 
L 428.062364 288.608247 
L 428.793618 249.135369 
L 429.524873 253.606672 
L 430.256127 263.336152 
L 431.718636 258.357642 
L 431.718636 258.357642 
" clip-path="url(#p09fff55072)" style="fill: none; stroke: #1f77b4; stroke-width: 1.5; stroke-linecap: square"/>
   </g>
   <g id="line2d_15">
    <path d="M 66.091364 265.490738 
L 66.822618 278.026574 
L 67.553873 274.594979 
L 68.285127 255.54308 
L 69.016382 272.774541 
L 69.747636 259.998918 
L 70.478891 264.508752 
L 71.210145 255.691791 
L 71.9414 280.098915 
L 72.672655 274.873756 
L 73.403909 266.790921 
L 74.135164 268.690374 
L 74.866418 263.91908 
L 75.597673 276.618976 
L 76.328927 255.296053 
L 77.060182 255.183928 
L 77.791436 271.616068 
L 78.522691 256.420697 
L 79.253945 270.087962 
L 79.9852 263.077813 
L 80.716455 251.680102 
L 81.447709 268.939023 
L 82.178964 273.580921 
L 82.910218 267.853169 
L 83.641473 253.701103 
L 84.372727 278.207618 
L 85.103982 262.997946 
L 85.835236 269.508114 
L 86.566491 249.767276 
L 87.297745 270.021669 
L 88.029 272.784772 
L 88.760255 255.9129 
L 89.491509 258.744163 
L 90.222764 249.271876 
L 90.954018 275.49152 
L 91.685273 262.271258 
L 92.416527 245.44474 
L 93.147782 266.958836 
L 93.879036 248.872181 
L 94.610291 256.101874 
L 95.341545 278.550883 
L 96.0728 272.822779 
L 96.804055 256.517537 
L 97.535309 260.453306 
L 98.997818 263.939618 
L 99.729073 276.144481 
L 100.460327 245.135678 
L 101.922836 271.392677 
L 102.654091 264.874843 
L 103.385345 280.754848 
L 104.1166 272.896985 
L 104.847855 257.653279 
L 105.579109 249.37462 
L 106.310364 260.096141 
L 107.041618 257.364978 
L 107.772873 262.164089 
L 108.504127 248.100901 
L 109.235382 244.67889 
L 109.966636 244.300809 
L 110.697891 264.374337 
L 111.429145 260.410707 
L 112.1604 244.385995 
L 112.891655 262.513418 
L 113.622909 274.102561 
L 114.354164 265.008268 
L 115.085418 249.789084 
L 115.816673 274.098553 
L 116.547927 264.122404 
L 117.279182 270.522142 
L 118.010436 275.775287 
L 118.741691 253.183665 
L 120.2042 263.801775 
L 120.935455 261.931749 
L 121.666709 267.027134 
L 122.397964 276.89731 
L 123.129218 270.7861 
L 123.860473 261.098083 
L 124.591727 263.94701 
L 125.322982 259.665214 
L 126.054236 259.363467 
L 126.785491 259.842708 
L 127.516745 252.498713 
L 128.248 260.658678 
L 128.979255 257.57357 
L 129.710509 269.3796 
L 130.441764 270.00245 
L 131.173018 269.640747 
L 131.904273 273.923485 
L 132.635527 251.497675 
L 133.366782 273.167364 
L 134.098036 263.769487 
L 134.829291 251.938344 
L 135.560545 256.764911 
L 136.2918 257.179048 
L 137.023055 252.563602 
L 137.754309 256.333366 
L 138.485564 267.910149 
L 139.216818 268.050062 
L 139.948073 266.62074 
L 140.679327 266.400328 
L 141.410582 251.101726 
L 142.141836 261.086495 
L 142.873091 246.202964 
L 144.3356 273.649308 
L 145.066855 261.368314 
L 145.798109 252.710148 
L 146.529364 265.195881 
L 147.260618 280.195052 
L 147.991873 259.25849 
L 148.723127 269.825292 
L 149.454382 268.73522 
L 150.185636 264.125629 
L 150.916891 263.355563 
L 151.648145 273.112688 
L 152.3794 261.294066 
L 153.110655 251.685567 
L 153.841909 271.82905 
L 154.573164 260.929708 
L 155.304418 257.832228 
L 156.035673 259.95647 
L 156.766927 266.169265 
L 157.498182 267.566839 
L 158.229436 260.306143 
L 158.960691 266.913426 
L 159.691945 264.680613 
L 160.4232 265.437427 
L 161.154455 261.683346 
L 161.885709 289.587007 
L 162.616964 253.911004 
L 163.348218 259.095687 
L 164.079473 285.993515 
L 164.810727 280.991181 
L 165.541982 242.653646 
L 166.273236 259.055167 
L 167.004491 271.413347 
L 167.735745 248.650762 
L 168.467 262.498958 
L 169.198255 262.68781 
L 169.929509 273.329031 
L 170.660764 267.589916 
L 171.392018 262.914941 
L 172.123273 254.579143 
L 172.854527 267.868214 
L 173.585782 264.531464 
L 174.317036 286.576111 
L 175.048291 268.530185 
L 175.779545 245.470725 
L 176.5108 246.567392 
L 177.242055 250.178078 
L 177.973309 260.373225 
L 178.704564 256.171372 
L 179.435818 249.725895 
L 180.167073 248.222237 
L 180.898327 245.879829 
L 181.629582 277.103456 
L 182.360836 260.321591 
L 183.092091 262.265825 
L 183.823345 261.767081 
L 184.5546 252.186431 
L 185.285855 252.161977 
L 186.017109 257.243608 
L 186.748364 270.051661 
L 187.479618 268.165464 
L 188.210873 258.578284 
L 188.942127 258.102106 
L 189.673382 262.111906 
L 190.404636 268.181031 
L 191.135891 259.801308 
L 191.867145 271.311005 
L 192.5984 269.344515 
L 193.329655 245.83566 
L 194.060909 254.041144 
L 194.792164 270.746454 
L 195.523418 275.663159 
L 196.254673 235.01304 
L 196.985927 261.558853 
L 197.717182 257.209625 
L 198.448436 256.175909 
L 199.179691 254.212196 
L 199.910945 253.218797 
L 200.6422 268.250386 
L 201.373455 275.78258 
L 202.104709 274.866423 
L 202.835964 253.507235 
L 203.567218 252.356566 
L 204.298473 255.106984 
L 205.029727 272.382886 
L 205.760982 275.859117 
L 206.492236 276.07458 
L 207.223491 261.403172 
L 207.954745 250.808257 
L 208.686 253.752364 
L 209.417255 255.201453 
L 210.148509 283.437007 
L 210.879764 261.11367 
L 211.611018 262.989964 
L 212.342273 47.317137 
L 213.073527 59.664067 
L 213.804782 52.794792 
L 214.536036 44.489733 
L 215.267291 56.225292 
L 215.998545 50.060169 
L 216.7298 41.865049 
L 217.461055 57.281428 
L 218.192309 62.792416 
L 218.923564 58.614355 
L 219.654818 58.752664 
L 220.386073 43.935256 
L 221.117327 64.821591 
L 221.848582 49.504929 
L 222.579836 59.877474 
L 223.311091 41.906321 
L 224.042345 47.932214 
L 224.7736 31.804686 
L 225.504855 56.751276 
L 226.967364 44.519863 
L 227.698618 45.460807 
L 228.429873 56.647756 
L 229.161127 60.249126 
L 229.892382 43.603968 
L 230.623636 51.671105 
L 231.354891 38.303154 
L 232.086145 58.165293 
L 232.8174 45.453762 
L 233.548655 55.400974 
L 234.279909 35.806387 
L 235.011164 42.657068 
L 235.742418 58.254917 
L 236.473673 39.904632 
L 237.204927 53.886426 
L 237.936182 48.31155 
L 238.667436 44.57599 
L 239.398691 52.027895 
L 240.129945 51.175548 
L 241.592455 29.127698 
L 242.323709 58.53751 
L 243.054964 41.554819 
L 243.786218 41.989425 
L 244.517473 53.549352 
L 245.248727 50.651959 
L 245.979982 31.845282 
L 246.711236 60.37598 
L 247.442491 42.146106 
L 248.173745 55.353143 
L 248.905 41.329578 
L 249.636255 55.841985 
L 250.367509 49.696987 
L 251.098764 59.225887 
L 251.830018 58.345811 
L 252.561273 50.821248 
L 253.292527 46.605043 
L 254.023782 51.787641 
L 254.755036 45.666905 
L 255.486291 46.606146 
L 256.217545 50.336757 
L 256.9488 35.606873 
L 257.680055 60.983361 
L 258.411309 51.68609 
L 259.142564 64.687196 
L 259.873818 42.36709 
L 260.605073 49.697512 
L 261.336327 53.111571 
L 262.067582 60.40922 
L 262.798836 43.480631 
L 263.530091 55.30459 
L 264.261345 40.361612 
L 264.9926 49.24797 
L 265.723855 49.788306 
L 266.455109 59.837587 
L 267.186364 36.212844 
L 267.917618 55.608404 
L 268.648873 47.925207 
L 269.380127 51.037235 
L 270.111382 39.548663 
L 270.842636 42.299706 
L 271.573891 60.530299 
L 272.305145 35.014067 
L 273.0364 41.733186 
L 273.767655 53.498848 
L 274.498909 45.566012 
L 275.230164 48.916992 
L 275.961418 40.054314 
L 276.692673 40.946184 
L 277.423927 45.212474 
L 278.155182 60.242353 
L 278.886436 48.127024 
L 279.617691 44.849133 
L 280.348945 42.612525 
L 281.0802 49.975386 
L 281.811455 55.019495 
L 282.542709 43.404743 
L 283.273964 49.791329 
L 284.005218 24.110909 
L 284.736473 51.316578 
L 285.467727 260.184675 
L 286.930236 277.341203 
L 287.661491 263.849001 
L 288.392745 266.3342 
L 289.124 266.724862 
L 289.855255 282.101139 
L 290.586509 260.72803 
L 291.317764 258.88263 
L 292.049018 262.018903 
L 292.780273 280.566264 
L 293.511527 276.593454 
L 294.242782 268.554001 
L 294.974036 256.297894 
L 295.705291 264.563835 
L 296.436545 265.614431 
L 297.1678 259.392686 
L 298.630309 262.706059 
L 299.361564 266.908898 
L 300.092818 261.05301 
L 300.824073 253.814158 
L 301.555327 250.808498 
L 302.286582 258.97362 
L 303.017836 263.880187 
L 303.749091 277.710478 
L 304.480345 264.387473 
L 305.2116 259.377407 
L 305.942855 248.624971 
L 306.674109 253.886708 
L 307.405364 258.208513 
L 308.136618 264.277049 
L 308.867873 257.002589 
L 309.599127 265.677615 
L 310.330382 264.173143 
L 311.061636 266.206928 
L 311.792891 277.974744 
L 312.524145 269.453868 
L 313.2554 253.633694 
L 313.986655 267.156197 
L 314.717909 268.857888 
L 315.449164 248.636571 
L 316.180418 264.543587 
L 316.911673 254.624355 
L 318.374182 263.797462 
L 319.105436 267.340262 
L 319.836691 271.502585 
L 320.567945 253.143315 
L 321.2992 263.804268 
L 322.030455 262.284832 
L 322.761709 269.105779 
L 323.492964 257.177569 
L 324.224218 276.020439 
L 324.955473 244.724552 
L 325.686727 258.705746 
L 326.417982 254.48561 
L 327.149236 249.161051 
L 327.880491 261.323485 
L 328.611745 262.689734 
L 329.343 257.74096 
L 330.074255 263.147736 
L 330.805509 257.526413 
L 331.536764 261.718074 
L 332.268018 270.707008 
L 332.999273 257.692049 
L 333.730527 261.503935 
L 335.193036 266.620825 
L 335.924291 261.386406 
L 336.655545 254.105628 
L 338.118055 268.708214 
L 338.849309 243.501553 
L 339.580564 249.999164 
L 340.311818 252.716774 
L 341.043073 263.28079 
L 341.774327 267.019788 
L 342.505582 264.820894 
L 343.236836 257.940715 
L 343.968091 261.069748 
L 344.699345 273.433786 
L 345.4306 252.201446 
L 346.161855 253.769122 
L 346.893109 276.255414 
L 347.624364 256.379747 
L 348.355618 244.159309 
L 349.086873 266.366502 
L 349.818127 252.585314 
L 350.549382 255.41325 
L 351.280636 245.7182 
L 352.011891 264.582077 
L 352.743145 275.014938 
L 353.4744 258.402062 
L 354.205655 251.197083 
L 354.936909 259.265593 
L 355.668164 258.482247 
L 356.399418 265.908162 
L 357.130673 262.41215 
L 357.861927 260.688799 
L 358.593182 268.624628 
L 359.324436 260.484955 
L 360.055691 267.279822 
L 360.786945 262.655068 
L 361.5182 263.533015 
L 362.249455 261.701368 
L 362.980709 264.040188 
L 363.711964 260.636258 
L 364.443218 274.711511 
L 365.174473 256.727757 
L 365.905727 261.880218 
L 366.636982 265.612376 
L 367.368236 267.606923 
L 368.099491 268.271929 
L 368.830745 255.556514 
L 369.562 257.232402 
L 370.293255 243.124657 
L 371.024509 268.223951 
L 371.755764 266.383087 
L 372.487018 273.67308 
L 373.218273 257.617517 
L 373.949527 259.345526 
L 374.680782 272.317113 
L 375.412036 248.495765 
L 376.143291 249.681325 
L 376.874545 257.804851 
L 377.6058 259.879061 
L 378.337055 240.683541 
L 379.068309 259.434041 
L 379.799564 251.033093 
L 380.530818 273.803669 
L 381.262073 269.808822 
L 381.993327 275.025994 
L 382.724582 261.482022 
L 383.455836 267.89285 
L 384.187091 270.005377 
L 384.918345 265.569215 
L 385.6496 268.896853 
L 386.380855 246.512322 
L 387.112109 275.514335 
L 387.843364 265.143831 
L 388.574618 250.73408 
L 389.305873 266.499641 
L 390.037127 256.611465 
L 390.768382 252.340531 
L 391.499636 273.429051 
L 392.230891 260.266314 
L 392.962145 284.191145 
L 393.6934 258.486332 
L 394.424655 270.774803 
L 395.155909 290.329091 
L 395.887164 281.26471 
L 396.618418 250.077757 
L 397.349673 259.6906 
L 398.080927 247.141009 
L 398.812182 251.904777 
L 399.543436 273.894305 
L 400.274691 254.391691 
L 401.005945 251.281358 
L 401.7372 268.993104 
L 402.468455 259.214754 
L 403.199709 256.950233 
L 403.930964 264.211691 
L 404.662218 262.463701 
L 405.393473 261.388379 
L 406.124727 242.099464 
L 406.855982 269.444753 
L 407.587236 254.824256 
L 408.318491 279.781362 
L 409.049745 257.747372 
L 409.781 262.035143 
L 410.512255 257.003362 
L 411.243509 265.429436 
L 412.706018 247.520413 
L 413.437273 272.554828 
L 414.168527 270.342001 
L 414.899782 267.106045 
L 415.631036 270.224712 
L 416.362291 265.190556 
L 417.093545 279.561605 
L 417.8248 262.892304 
L 418.556055 257.254618 
L 419.287309 259.571072 
L 420.018564 266.09474 
L 420.749818 257.04937 
L 421.481073 270.238114 
L 422.212327 254.644029 
L 422.943582 255.684138 
L 423.674836 250.594892 
L 424.406091 237.736922 
L 425.137345 263.186882 
L 425.8686 261.540926 
L 426.599855 265.640076 
L 427.331109 267.972444 
L 428.062364 288.608247 
L 428.793618 249.135369 
L 429.524873 253.606672 
L 430.256127 263.336152 
L 431.718636 258.357642 
L 431.718636 258.357642 
" clip-path="url(#p09fff55072)" style="fill: none; stroke-dasharray: 5.55,2.4; stroke-dashoffset: 0; stroke: #ff7f0e; stroke-width: 1.5"/>
   </g>
   <g id="patch_4">
    <path d="M 47.81 303.64 
L 47.81 10.8 
" style="fill: none; stroke: #000000; stroke-width: 0.8; stroke-linejoin: miter; stroke-linecap: square"/>
   </g>
   <g id="patch_5">
    <path d="M 450 303.64 
L 450 10.8 
" style="fill: none; stroke: #000000; stroke-width: 0.8; stroke-linejoin: miter; stroke-linecap: square"/>
   </g>
   <g id="patch_6">
    <path d="M 47.81 303.64 
L 450 303.64 
" style="fill: none; stroke: #000000; stroke-width: 0.8; stroke-linejoin: miter; stroke-linecap: square"/>
   </g>
   <g id="patch_7">
    <path d="M 47.81 10.8 
L 450 10.8 
" style="fill: none; stroke: #000000; stroke-width: 0.8; stroke-linejoin: miter; stroke-linecap: square"/>
   </g>
   <g id="legend_1">
    <g id="patch_8">
     <path d="M 317.407812 62.834375 
L 443 62.834375 
Q 445 62.834375 445 60.834375 
L 445 17.8 
Q 445 15.8 443 15.8 
L 317.407812 15.8 
Q 315.407812 15.8 315.407812 17.8 
L 315.407812 60.834375 
Q 315.407812 62.834375 317.407812 62.834375 
z
" style="fill: #ffffff; opacity: 0.8; stroke: #cccccc; stroke-linejoin: miter"/>
    </g>
    <g id="line2d_16">
     <path d="M 319.407812 23.898438 
L 329.407812 23.898438 
L 339.407812 23.898438 
" style="fill: none; stroke: #1f77b4; stroke-width: 1.5; stroke-linecap: square"/>
    </g>
    <g id="text_16">
     <!-- Nominal -->
     <g transform="translate(347.407812 27.398438) scale(0.1 -0.1)">
      <defs>
       <path id="DejaVuSans-4e" d="M 628 4666 
L 1478 4666 
L 3547 763 
L 3547 4666 
L 4159 4666 
L 4159 0 
L 3309 0 
L 1241 3903 
L 1241 0 
L 628 0 
L 628 4666 
z
" transform="scale(0.015625)"/>
       <path id="DejaVuSans-6e" d="M 3513 2113 
L 3513 0 
L 2938 0 
L 2938 2094 
Q 2938 2591 2744 2837 
Q 2550 3084 2163 3084 
Q 1697 3084 1428 2787 
Q 1159 2491 1159 1978 
L 1159 0 
L 581 0 
L 581 3500 
L 1159 3500 
L 1159 2956 
Q 1366 3272 1645 3428 
Q 1925 3584 2291 3584 
Q 2894 3584 3203 3211 
Q 3513 2838 3513 2113 
z
" transform="scale(0.015625)"/>
       <path id="DejaVuSans-61" d="M 2194 1759 
Q 1497 1759 1228 1600 
Q 959 1441 959 1056 
Q 959 750 1161 570 
Q 1363 391 1709 391 
Q 2188 391 2477 730 
Q 2766 1069 2766 1631 
L 2766 1759 
L 2194 1759 
z
M 3341 1997 
L 3341 0 
L 2766 0 
L 2766 531 
Q 2569 213 2275 61 
Q 1981 -91 1556 -91 
Q 1019 -91 701 211 
Q 384 513 384 1019 
Q 384 1609 779 1909 
Q 1175 2209 1959 2209 
L 2766 2209 
L 2766 2266 
Q 2766 2663 2505 2880 
Q 2244 3097 1772 3097 
Q 1472 3097 1187 3025 
Q 903 2953 641 2809 
L 641 3341 
Q 956 3463 1253 3523 
Q 1550 3584 1831 3584 
Q 2591 3584 2966 3190 
Q 3341 2797 3341 1997 
z
" transform="scale(0.015625)"/>
       <path id="DejaVuSans-6c" d="M 603 4863 
L 1178 4863 
L 1178 0 
L 603 0 
L 603 4863 
z
" transform="scale(0.015625)"/>
      </defs>
      <use xlink:href="#DejaVuSans-4e"/>
      <use xlink:href="#DejaVuSans-6f" x="74.804688"/>
      <use xlink:href="#DejaVuSans-6d" x="135.986328"/>
      <use xlink:href="#DejaVuSans-69" x="233.398438"/>
      <use xlink:href="#DejaVuSans-6e" x="261.181641"/>
      <use xlink:href="#DejaVuSans-61" x="324.560547"/>
      <use xlink:href="#DejaVuSans-6c" x="385.839844"/>
     </g>
    </g>
    <g id="line2d_17">
     <path d="M 319.407812 38.576563 
L 329.407812 38.576563 
L 339.407812 38.576563 
" style="fill: none; stroke-dasharray: 5.55,2.4; stroke-dashoffset: 0; stroke: #ff7f0e; stroke-width: 1.5"/>
    </g>
    <g id="text_17">
     <!-- AI confidence drop -->
     <g transform="translate(347.407812 42.076563) scale(0.1 -0.1)">
      <defs>
       <path id="DejaVuSans-41" d="M 2188 4044 
L 1331 1722 
L 3047 1722 
L 2188 4044 
z
M 1831 4666 
L 2547 4666 
L 4325 0 
L 3669 0 
L 3244 1197 
L 1141 1197 
L 716 0 
L 50 0 
L 1831 4666 
z
" transform="scale(0.015625)"/>
       <path id="DejaVuSans-49" d="M 628 4666 
L 1259 4666 
L 1259 0 
L 628 0 
L 628 4666 
z
" transform="scale(0.015625)"/>
       <path id="DejaVuSans-63" d="M 3122 3366 
L 3122 2828 
Q 2878 2963 2633 3030 
Q 2388 3097 2138 3097 
Q 1578 3097 1268 2742 
Q 959 2388 959 1747 
Q 959 1106 1268 751 
Q 1578 397 2138 397 
Q 2388 397 2633 464 
Q 2878 531 3122 666 
L 3122 134 
Q 2881 22 2623 -34 
Q 2366 -91 2075 -91 
Q 1284 -91 818 406 
Q 353 903 353 1747 
Q 353 2603 823 3093 
Q 1294 3584 2113 3584 
Q 2378 3584 2631 3529 
Q 2884 3475 3122 3366 
z
" transform="scale(0.015625)"/>
       <path id="DejaVuSans-66" d="M 2375 4863 
L 2375 4384 
L 1825 4384 
Q 1516 4384 1395 4259 
Q 1275 4134 1275 3809 
L 1275 3500 
L 2222 3500 
L 2222 3053 
L 1275 3053 
L 1275 0 
L 697 0 
L 697 3053 
L 147 3053 
L 147 3500 
L 697 3500 
L 697 3744 
Q 697 4328 969 4595 
Q 1241 4863 1831 4863 
L 2375 4863 
z
" transform="scale(0.015625)"/>
       <path id="DejaVuSans-64" d="M 2906 2969 
L 2906 4863 
L 3481 4863 
L 3481 0 
L 2906 0 
L 2906 525 
Q 2725 213 2448 61 
Q 2172 -91 1784 -91 
Q 1150 -91 751 415 
Q 353 922 353 1747 
Q 353 2572 751 3078 
Q 1150 3584 1784 3584 
Q 2172 3584 2448 3432 
Q 2725 3281 2906 2969 
z
M 947 1747 
Q 947 1113 1208 752 
Q 1469 391 1925 391 
Q 2381 391 2643 752 
Q 2906 1113 2906 1747 
Q 2906 2381 2643 2742 
Q 2381 3103 1925 3103 
Q 1469 3103 1208 2742 
Q 947 2381 947 1747 
z
" transform="scale(0.015625)"/>
      </defs>
      <use xlink:href="#DejaVuSans-41"/>
      <use xlink:href="#DejaVuSans-49" x="68.408203"/>
      <use xlink:href="#DejaVuSans-20" x="97.900391"/>
      <use xlink:href="#DejaVuSans-63" x="129.6875"/>
      <use xlink:href="#DejaVuSans-6f" x="184.667969"/>
      <use xlink:href="#DejaVuSans-6e" x="245.849609"/>
      <use xlink:href="#DejaVuSans-66" x="309.228516"/>
      <use xlink:href="#DejaVuSans-69" x="344.433594"/>
      <use xlink:href="#DejaVuSans-64" x="372.216797"/>
      <use xlink:href="#DejaVuSans-65" x="435.693359"/>
      <use xlink:href="#DejaVuSans-6e" x="497.216797"/>
      <use xlink:href="#DejaVuSans-63" x="560.595703"/>
      <use xlink:href="#DejaVuSans-65" x="615.576172"/>
      <use xlink:href="#DejaVuSans-20" x="677.099609"/>
      <use xlink:href="#DejaVuSans-64" x="708.886719"/>
      <use xlink:href="#DejaVuSans-72" x="772.363281"/>
      <use xlink:href="#DejaVuSans-6f" x="811.226562"/>
      <use xlink:href="#DejaVuSans-70" x="872.408203"/>
     </g>
    </g>
    <g id="patch_9">
     <path d="M 319.407812 56.754688 
L 339.407812 56.754688 
L 339.407812 49.754688 
L 319.407812 49.754688 
z
" style="fill: #808080; opacity: 0.2; stroke: #808080; stroke-linejoin: miter"/>
    </g>
    <g id="text_18">
     <!-- AI broadened -->
     <g transform="translate(347.407812 56.754688) scale(0.1 -0.1)">
      <defs>
       <path id="DejaVuSans-62" d="M 3116 1747 
Q 3116 2381 2855 2742 
Q 2594 3103 2138 3103 
Q 1681 3103 1420 2742 
Q 1159 2381 1159 1747 
Q 1159 1113 1420 752 
Q 1681 391 2138 391 
Q 2594 391 2855 752 
Q 3116 1113 3116 1747 
z
M 1159 2969 
Q 1341 3281 1617 3432 
Q 1894 3584 2278 3584 
Q 2916 3584 3314 3078 
Q 3713 2572 3713 1747 
Q 3713 922 3314 415 
Q 2916 -91 2278 -91 
Q 1894 -91 1617 61 
Q 1341 213 1159 525 
L 1159 0 
L 581 0 
L 581 4863 
L 1159 4863 
L 1159 2969 
z
" transform="scale(0.015625)"/>
      </defs>
      <use xlink:href="#DejaVuSans-41"/>
      <use xlink:href="#DejaVuSans-49" x="68.408203"/>
      <use xlink:href="#DejaVuSans-20" x="97.900391"/>
      <use xlink:href="#DejaVuSans-62" x="129.6875"/>
      <use xlink:href="#DejaVuSans-72" x="193.164062"/>
      <use xlink:href="#DejaVuSans-6f" x="232.027344"/>
      <use xlink:href="#DejaVuSans-61" x="293.208984"/>
      <use xlink:href="#DejaVuSans-64" x="354.488281"/>
      <use xlink:href="#DejaVuSans-65" x="417.964844"/>
      <use xlink:href="#DejaVuSans-6e" x="479.488281"/>
      <use xlink:href="#DejaVuSans-65" x="542.867188"/>
      <use xlink:href="#DejaVuSans-64" x="604.390625"/>
     </g>
    </g>
   </g>
  </g>
 </g>
 <defs>
  <clipPath id="p09fff55072">
   <rect x="47.81" y="10.8" width="402.19" height="292.84"/>
  </clipPath>
 </defs>
</svg>
